<svg width="11" height="8" viewBox="0 0 9 6" fill="none" xmlns="http://www.w3.org/2000/svg">
<path d="M8.76995 0.520185L8.49292 0.241227C8.40573 0.154109 8.28973 0.106114 8.16576 0.106114C8.04185 0.106114 7.92572 0.154109 7.83853 0.241227L4.67833 3.40156L1.51449 0.237721C1.42744 0.150602 1.31131 0.102676 1.1874 0.102676C1.0635 0.102676 0.947293 0.150602 0.860175 0.237721L0.583073 0.51496C0.402648 0.695248 0.402648 0.988921 0.583073 1.16921L4.35001 4.94969C4.43706 5.03674 4.55305 5.09807 4.67806 5.09807H4.6795C4.80348 5.09807 4.91947 5.03667 5.00652 4.94969L8.76995 1.17945C8.85714 1.0924 8.90499 0.972899 8.90513 0.848994C8.90513 0.725021 8.85714 0.607167 8.76995 0.520185Z" fill="#BDBDBD"/>
</svg>
