<svg width="17" height="15" viewBox="0 0 17 15" fill="none" xmlns="http://www.w3.org/2000/svg">
<path d="M2.92615 14.3501V14.4458L3.00471 14.3911L7.39507 11.3362H14.0165C15.1977 11.3362 16.1586 10.3752 16.1586 9.19409V2.44217C16.1586 1.26082 15.1977 0.300098 14.0165 0.300098H2.98358C1.80243 0.300098 0.84151 1.26082 0.84151 2.44217V9.19409C0.84151 10.3561 1.77138 11.3048 2.92615 11.3354V14.3501ZM7.09964 10.3445H7.08395L7.07108 10.3535L3.91777 12.5478V10.3945V10.3445H3.86777H2.98358C2.34926 10.3445 1.83314 9.82832 1.83314 9.19409V2.44217C1.83314 1.80775 2.34925 1.29172 2.98358 1.29172H14.0165C14.6508 1.29172 15.167 1.80775 15.167 2.44217V9.19409C15.167 9.82832 14.6508 10.3445 14.0165 10.3445H7.09964Z" fill="#09A5DB" stroke="#09A5DB" stroke-width="0.1"/>
<path d="M4.96429 7.25481H4.91429V7.30481V8.19643V8.24643H4.96429H12.0358H12.0858V8.19643V7.30481V7.25481H12.0358H4.96429Z" fill="#09A5DB" stroke="#09A5DB" stroke-width="0.1"/>
<path d="M4.96429 5.35271H4.91429V5.40271V6.29434V6.34434H4.96429H12.0358H12.0858V6.29434V5.40271V5.35271H12.0358H4.96429Z" fill="#09A5DB" stroke="#09A5DB" stroke-width="0.1"/>
<path d="M4.96429 3.45061H4.91429V3.50061V4.39223V4.44223H4.96429H12.0358H12.0858V4.39223V3.50061V3.45061H12.0358H4.96429Z" fill="#09A5DB" stroke="#09A5DB" stroke-width="0.1"/>
</svg>
