<svg width="22" height="18" viewBox="0 0 22 17" fill="none" xmlns="http://www.w3.org/2000/svg">
<path d="M21.8182 8.22467L20.6527 5.89371V3.78317C20.6527 1.97393 19.1808 0.502045 17.3716 0.502045C15.6313 0.502045 14.2038 1.86413 14.0975 3.57813H2.72945C1.71173 3.57809 0.883789 4.40603 0.883789 5.42371V14.6519C0.883789 15.6995 1.76165 16.4976 2.67006 16.4976H16.1411C17.1588 16.4976 17.9868 15.6697 17.9868 14.6519V11.47C18.7028 11.2161 19.2172 10.5323 19.2172 9.73019V9.11496H21.2679C21.7244 9.11504 22.0226 8.63356 21.8182 8.22467ZM9.53107 10.6463L3.23973 4.80852H14.0904V5.89371L13.7207 6.63306L9.53107 10.6463ZM16.1411 15.2672H2.72945C2.39021 15.2672 2.11422 14.9912 2.11422 14.6519V5.44271L9.11932 11.9427C9.35733 12.1636 9.72733 12.1621 9.96334 11.9361L13.0688 8.96131C13.1796 9.05889 13.3235 9.115 13.4751 9.115H15.5258V9.73023C15.5258 10.5323 16.0402 11.2161 16.7563 11.4701V14.652C16.7563 14.9912 16.4803 15.2672 16.1411 15.2672ZM17.9868 9.73023C17.9868 10.0695 17.7108 10.3455 17.3715 10.3455C17.0323 10.3455 16.7563 10.0695 16.7563 9.73023V9.115H17.9867V9.73023H17.9868ZM14.4706 7.88457L15.2559 6.31404C15.3695 6.08694 15.2998 6.10031 15.3208 3.78313C15.3208 2.65237 16.2408 1.73243 17.3715 1.73243C18.5023 1.73243 19.4222 2.65237 19.4222 3.78313C19.4433 6.10014 19.3735 6.08681 19.4872 6.31404L20.2725 7.88457H14.4706Z" fill="#09A5DB"/>
</svg> 
