<svg width="53" height="52" viewBox="0 0 53 52" fill="none" xmlns="http://www.w3.org/2000/svg">
<circle cx="26.8838" cy="26" r="26" fill="#FCF0F0"/>
<g clip-path="url(#clip0)">
<path d="M35.6561 32.1099C35.6278 31.7007 35.5704 31.2543 35.486 30.783C35.4007 30.3081 35.291 29.8591 35.1596 29.4488C35.0238 29.0247 34.8393 28.6059 34.611 28.2046C34.3744 27.788 34.0963 27.4253 33.7842 27.1268C33.4578 26.8145 33.0582 26.5635 32.5962 26.3804C32.1357 26.1982 31.6254 26.1059 31.0795 26.1059C30.8652 26.1059 30.6578 26.1939 30.2575 26.4545C30.011 26.6152 29.7228 26.8011 29.4011 27.0066C29.126 27.1819 28.7533 27.3461 28.293 27.4948C27.844 27.6401 27.388 27.7138 26.9378 27.7138C26.4879 27.7138 26.0319 27.6401 25.5825 27.4948C25.1227 27.3463 24.7498 27.1821 24.4752 27.0068C24.1566 26.8032 23.8682 26.6173 23.6181 26.4544C23.218 26.1937 23.0107 26.1057 22.7963 26.1057C22.2503 26.1057 21.7402 26.1982 21.2799 26.3805C20.8181 26.5633 20.4184 26.8144 20.0917 27.127C19.7796 27.4256 19.5015 27.7882 19.265 28.2046C19.037 28.6059 18.8524 29.0246 18.7166 29.449C18.5853 29.8593 18.4756 30.3081 18.3903 30.783C18.3058 31.2537 18.2486 31.7002 18.2202 32.1104C18.1923 32.5114 18.1782 32.9287 18.1782 33.3504C18.1782 34.4466 18.5267 35.3341 19.2139 35.9886C19.8925 36.6344 20.7904 36.9619 21.8826 36.9619H31.9942C33.0861 36.9619 33.9839 36.6344 34.6628 35.9886C35.3501 35.3346 35.6986 34.4468 35.6986 33.3503C35.6984 32.9271 35.6842 32.5098 35.6561 32.1099ZM33.8143 35.097C33.3658 35.5238 32.7705 35.7313 31.9941 35.7313H21.8826C21.106 35.7313 20.5107 35.5238 20.0624 35.0971C19.6226 34.6785 19.4088 34.107 19.4088 33.3504C19.4088 32.9569 19.4218 32.5684 19.4478 32.1954C19.4731 31.8295 19.5248 31.4275 19.6016 31.0004C19.6774 30.5785 19.7738 30.1826 19.8885 29.8242C19.9986 29.4806 20.1487 29.1403 20.3349 28.8124C20.5126 28.5 20.717 28.232 20.9426 28.016C21.1536 27.814 21.4196 27.6486 21.733 27.5246C22.0228 27.4099 22.3485 27.3471 22.7021 27.3377C22.7452 27.3606 22.822 27.4043 22.9463 27.4854C23.1993 27.6502 23.4909 27.8383 23.8132 28.0442C24.1766 28.2759 24.6447 28.4851 25.2041 28.6657C25.7759 28.8506 26.3591 28.9445 26.9379 28.9445C27.5168 28.9445 28.1001 28.8506 28.6716 28.6659C29.2314 28.485 29.6994 28.2759 30.0633 28.0439C30.3932 27.833 30.6766 27.6504 30.9296 27.4854C31.0539 27.4045 31.1306 27.3606 31.1737 27.3377C31.5275 27.3471 31.8532 27.4099 32.1432 27.5246C32.4564 27.6486 32.7224 27.8141 32.9334 28.016C33.159 28.2318 33.3634 28.4999 33.5411 28.8126C33.7274 29.1403 33.8777 29.4807 33.9876 29.8241C34.1025 30.1829 34.1991 30.5787 34.2747 31.0002C34.3513 31.4282 34.4032 31.8303 34.4286 32.1956V32.1959C34.4547 32.5675 34.4678 32.9558 34.468 33.3504C34.4678 34.1071 34.2541 34.6785 33.8143 35.097Z" fill="#E06767"/>
<path d="M26.8059 26.0777C28.1956 26.0777 29.3988 25.5793 30.3822 24.5958C31.3653 23.6126 31.8639 22.4095 31.8639 21.0196C31.8639 19.6302 31.3655 18.427 30.3821 17.4434C29.3986 16.4603 28.1954 15.9619 26.8059 15.9619C25.416 15.9619 24.2129 16.4603 23.2296 17.4436C22.2464 18.4269 21.7478 19.6301 21.7478 21.0196C21.7478 22.4095 22.2464 23.6128 23.2296 24.596C24.2132 25.5791 25.4165 26.0777 26.8059 26.0777ZM24.0999 18.3137C24.8544 17.5593 25.7394 17.1925 26.8059 17.1925C27.8721 17.1925 28.7573 17.5593 29.5119 18.3137C30.2664 19.0684 30.6333 19.9536 30.6333 21.0196C30.6333 22.086 30.2664 22.9711 29.5119 23.7257C28.7573 24.4803 27.8721 24.8471 26.8059 24.8471C25.7398 24.8471 24.8547 24.4802 24.0999 23.7257C23.3453 22.9712 22.9784 22.086 22.9784 21.0196C22.9784 19.9536 23.3453 19.0684 24.0999 18.3137Z" fill="#E06767"/>
</g>
<defs>
<clipPath id="clip0">
<rect x="16.4556" y="15.9619" width="21" height="21" fill="white"/>
</clipPath>
</defs>
</svg>
