<svg width="53" height="52" viewBox="0 0 53 52" fill="none" xmlns="http://www.w3.org/2000/svg">
<circle cx="26.8838" cy="26" r="26" fill="#EBF6FD"/>
<g clip-path="url(#clip0)">
<path d="M37.782 25.4372L36.6166 23.1062V20.9957C36.6166 19.1865 35.1446 17.7146 33.3354 17.7146C31.5952 17.7146 30.1676 19.0767 30.0614 20.7907H18.6933C17.6756 20.7906 16.8477 21.6186 16.8477 22.6362V31.8645C16.8477 32.912 17.7255 33.7101 18.6339 33.7101H32.105C33.1227 33.7101 33.9506 32.8822 33.9506 31.8645V28.6826C34.6667 28.4286 35.1811 27.7448 35.1811 26.9427V26.3275H37.2318C37.6882 26.3276 37.9865 25.8461 37.782 25.4372ZM25.4949 27.8588L19.2036 22.021H30.0543V23.1062L29.6846 23.8456L25.4949 27.8588ZM32.105 32.4797H18.6933C18.3541 32.4797 18.0781 32.2038 18.0781 31.8645V22.6552L25.0832 29.1553C25.3212 29.3761 25.6912 29.3747 25.9272 29.1486L29.0327 26.1738C29.1435 26.2714 29.2873 26.3275 29.439 26.3275H31.4897V26.9428C31.4897 27.7448 32.0041 28.4286 32.7201 28.6826V31.8645C32.7202 32.2037 32.4442 32.4797 32.105 32.4797ZM33.9506 26.9428C33.9506 27.282 33.6747 27.558 33.3354 27.558C32.9962 27.558 32.7202 27.282 32.7202 26.9428V26.3275H33.9506V26.9428H33.9506ZM30.4345 25.0971L31.2197 23.5266C31.3333 23.2995 31.2636 23.3128 31.2847 20.9957C31.2847 19.8649 32.2046 18.945 33.3354 18.945C34.4662 18.945 35.3861 19.8649 35.3861 20.9957C35.4071 23.3127 35.3374 23.2993 35.4511 23.5266L36.2364 25.0971H30.4345Z" fill="#39A1EA"/>
<rect x="26.363" y="30.3337" width="8.54354" height="5.87891" fill="#EBF6FD"/>
<path d="M35.1222 36.2126C34.9731 36.2126 34.8311 36.1369 34.749 36.0061L34.5747 35.7273C33.8465 34.5614 32.5908 33.8655 31.216 33.8655H30.868V35.1857C30.868 35.3659 30.7583 35.5278 30.5911 35.5947C30.4233 35.661 30.2325 35.6194 30.1087 35.4885L27.4682 32.7013C27.3075 32.5318 27.3075 32.2659 27.4682 32.0964L30.1087 29.3092C30.2325 29.1777 30.4233 29.1372 30.5911 29.203C30.7583 29.2693 30.868 29.4312 30.868 29.6114V30.934C33.4698 31.0114 35.5622 33.1526 35.5622 35.7725C35.5622 35.9685 35.432 36.141 35.2436 36.1956C35.2031 36.2073 35.1627 36.2126 35.1222 36.2126ZM30.4279 32.9853H31.216C32.3708 32.9853 33.4563 33.3873 34.3112 34.1002C33.6799 32.7494 32.308 31.8118 30.7207 31.8118H30.4274C30.1844 31.8118 29.9873 31.6146 29.9873 31.3717V30.7157L28.3936 32.3986L29.9879 34.0814V33.4254C29.9879 33.1825 30.185 32.9853 30.4279 32.9853Z" fill="#39A1EA"/>
</g>
<defs>
<clipPath id="clip0">
<rect x="16.8477" y="15.2124" width="21" height="21" fill="white"/>
</clipPath>
</defs>
</svg>
