<svg width="23" height="22" viewBox="0 0 23 22" fill="none" xmlns="http://www.w3.org/2000/svg">
<rect x="0.883789" width="22" height="22" rx="5" fill="#09A5DB"/>
<mask id="mask0" mask-type="alpha" maskUnits="userSpaceOnUse" x="6" y="5" width="12" height="12">
<path fill-rule="evenodd" clip-rule="evenodd" d="M14.0775 12.75H14.5713L17.69 15.875L16.7588 16.8062L13.6338 13.6875V13.1937L13.465 13.0188C12.7525 13.6313 11.8275 14 10.8213 14C8.57754 14 6.75879 12.1813 6.75879 9.9375C6.75879 7.69375 8.57754 5.875 10.8213 5.875C13.065 5.875 14.8838 7.69375 14.8838 9.9375C14.8838 10.9437 14.515 11.8688 13.9025 12.5813L14.0775 12.75ZM8.00879 9.9375C8.00879 11.4938 9.26504 12.75 10.8213 12.75C12.3775 12.75 13.6338 11.4938 13.6338 9.9375C13.6338 8.38125 12.3775 7.125 10.8213 7.125C9.26504 7.125 8.00879 8.38125 8.00879 9.9375Z" fill="white"/>
</mask>
<g mask="url(#mask0)">
<rect x="4.88379" y="4" width="15" height="15" fill="white"/>
</g>
</svg>
