<svg width="22" height="21" viewBox="0 0 22 21" fill="none" xmlns="http://www.w3.org/2000/svg">
<path d="M20.0844 16.148C20.056 15.7388 19.9986 15.2924 19.9142 14.821C19.829 14.3462 19.7192 13.8972 19.5878 13.4869C19.452 13.0628 19.2676 12.644 19.0393 12.2427C18.8026 11.8261 18.5245 11.4634 18.2124 11.1649C17.886 10.8526 17.4864 10.6016 17.0244 10.4184C16.5639 10.2363 16.0536 10.144 15.5078 10.144C15.2934 10.144 15.0861 10.2319 14.6857 10.4926C14.4393 10.6533 14.151 10.8392 13.8293 11.0447C13.5542 11.22 13.1816 11.3842 12.7213 11.5329C12.2722 11.6782 11.8162 11.7519 11.366 11.7519C10.9161 11.7519 10.4601 11.6782 10.0107 11.5329C9.55089 11.3844 9.17807 11.2202 8.90345 11.0449C8.58478 10.8413 8.29639 10.6554 8.04629 10.4925C7.64623 10.2318 7.43891 10.1438 7.22454 10.1438C6.67852 10.1438 6.16839 10.2363 5.70809 10.4186C5.24634 10.6014 4.8466 10.8525 4.51992 11.1651C4.20781 11.4637 3.92968 11.8263 3.6932 12.2427C3.46521 12.644 3.28064 13.0627 3.14477 13.4871C3.01356 13.8974 2.90381 14.3462 2.81857 14.821C2.73398 15.2918 2.67678 15.7383 2.64842 16.1484C2.62054 16.5495 2.60645 16.9668 2.60645 17.3885C2.60645 18.4847 2.95492 19.3722 3.64209 20.0267C4.32077 20.6725 5.21862 21 6.31082 21H16.4224C17.5143 21 18.4122 20.6725 19.091 20.0267C19.7783 19.3726 20.1268 18.4849 20.1268 17.3884C20.1267 16.9652 20.1124 16.5479 20.0844 16.148ZM18.2425 19.135C17.7941 19.5619 17.1987 19.7693 16.4223 19.7693H6.31082C5.53425 19.7693 4.93888 19.5619 4.4906 19.1352C4.0508 18.7166 3.83707 18.1451 3.83707 17.3885C3.83707 16.995 3.85005 16.6065 3.876 16.2335C3.90132 15.8676 3.95307 15.4656 4.02981 15.0385C4.1056 14.6166 4.20205 14.2207 4.31676 13.8623C4.42683 13.5186 4.57695 13.1783 4.76313 12.8505C4.94081 12.5381 5.14524 12.2701 5.37083 12.0541C5.58184 11.8521 5.8478 11.6867 6.16118 11.5627C6.45101 11.448 6.77673 11.3852 7.13033 11.3757C7.17343 11.3986 7.25017 11.4424 7.3745 11.5235C7.62749 11.6883 7.91908 11.8764 8.24144 12.0823C8.60481 12.314 9.07296 12.5232 9.63228 12.7038C10.2041 12.8887 10.7873 12.9826 11.3661 12.9826C11.945 12.9826 12.5284 12.8887 13.0999 12.7039C13.6597 12.5231 14.1276 12.314 14.4915 12.082C14.8214 11.8711 15.1048 11.6885 15.3578 11.5235C15.4821 11.4425 15.5589 11.3986 15.602 11.3757C15.9557 11.3852 16.2814 11.448 16.5714 11.5627C16.8847 11.6867 17.1506 11.8522 17.3616 12.0541C17.5872 12.2699 17.7917 12.538 17.9693 12.8507C18.1557 13.1783 18.3059 13.5188 18.4159 13.8621C18.5307 14.221 18.6273 14.6168 18.703 15.0383C18.7796 15.4662 18.8315 15.8684 18.8568 16.2337V16.234C18.8829 16.6055 18.896 16.9939 18.8962 17.3885C18.896 18.1452 18.6823 18.7166 18.2425 19.135Z" fill="#B0B0B0"/>
<path d="M11.2341 10.1158C12.6238 10.1158 13.827 9.61734 14.8104 8.63393C15.7935 7.65068 16.2921 6.44761 16.2921 5.05773C16.2921 3.66833 15.7937 2.4651 14.8103 1.48153C13.8269 0.498435 12.6236 0 11.2341 0C9.84419 0 8.64112 0.498435 7.65787 1.48169C6.67462 2.46494 6.17603 3.66817 6.17603 5.05773C6.17603 6.44761 6.67462 7.65084 7.65787 8.63409C8.64144 9.61718 9.84467 10.1158 11.2341 10.1158ZM8.52817 2.35182C9.28263 1.59736 10.1677 1.23063 11.2341 1.23063C12.3003 1.23063 13.1855 1.59736 13.9401 2.35182C14.6946 3.10645 15.0615 3.99165 15.0615 5.05773C15.0615 6.12413 14.6946 7.00917 13.9401 7.76379C13.1855 8.51842 12.3003 8.88515 11.2341 8.88515C10.168 8.88515 9.28295 8.51826 8.52817 7.76379C7.77355 7.00933 7.40665 6.12413 7.40665 5.05773C7.40665 3.99165 7.77355 3.10645 8.52817 2.35182Z" fill="#B0B0B0"/>
</svg>
