<svg width="22" height="15" viewBox="0 0 22 15" fill="none" xmlns="http://www.w3.org/2000/svg">
<path d="M21.2275 1.59375H19.2588C19.0843 1.59272 18.9167 1.66122 18.7929 1.78406L17.6772 2.90625H16.6338V2.25C16.6338 1.16268 15.7524 0.28125 14.665 0.28125H2.85254C1.76521 0.28125 0.883789 1.16268 0.883789 2.25V12.75C0.883789 13.8373 1.76521 14.7188 2.85254 14.7188H14.665C15.7524 14.7188 16.6338 13.8373 16.6338 12.75V12.0938H17.6772L18.7994 13.2159C18.9216 13.3372 19.0866 13.4055 19.2588 13.4062H21.2275C21.59 13.4062 21.8838 13.1125 21.8838 12.75V2.25C21.8838 1.88754 21.59 1.59375 21.2275 1.59375ZM20.5713 12.0938H19.5279L18.4057 10.9716C18.2834 10.8503 18.1184 10.782 17.9463 10.7812H15.9775C15.6151 10.7812 15.3213 11.075 15.3213 11.4375V12.75C15.3213 13.1125 15.0275 13.4062 14.665 13.4062H2.85254C2.49008 13.4062 2.19629 13.1125 2.19629 12.75V2.25C2.19629 1.88754 2.49008 1.59375 2.85254 1.59375H14.665C15.0275 1.59375 15.3213 1.88754 15.3213 2.25V8.8125H16.6338V4.21875H17.9463C18.1207 4.21978 18.2884 4.15128 18.4122 4.02844L19.5279 2.90625H20.5713V12.0938Z" fill="#09A5DB"/>
</svg>
