<svg width="30" height="30" viewBox="0 0 30 30" fill="none" xmlns="http://www.w3.org/2000/svg">
<circle opacity="0.3" cx="14.522" cy="14.925" r="14.5" fill="white"/>
<g clip-path="url(#clip0)">
<path d="M21.3155 17.9301C19.6689 16.283 19.4211 15.4566 19.4211 12.825C19.4211 10.1188 17.2278 7.92505 14.522 7.92505C11.8163 7.92505 9.62295 10.1189 9.62295 12.825C9.62295 14.2439 9.58516 14.7736 9.38985 15.4239C9.14695 16.234 8.64831 17.0096 7.72828 17.9301C7.28753 18.3711 7.59974 19.125 8.2232 19.125H12.1075L12.0722 19.475C12.0722 20.8281 13.1689 21.925 14.5218 21.925C15.8746 21.925 16.9713 20.8281 16.9713 19.475L16.9361 19.125H20.8206C21.4443 19.125 21.7565 18.3711 21.3155 17.9301ZM14.5222 21.225C13.556 21.225 12.7725 20.4413 12.7725 19.475L12.8077 19.125H16.2363L16.272 19.475C16.272 20.4413 15.4885 21.225 14.5222 21.225ZM8.22342 18.425C10.323 16.325 10.323 14.925 10.323 12.825C10.323 10.5057 12.2029 8.62505 14.522 8.62505C16.8411 8.62505 18.7211 10.5057 18.7213 12.825C18.7213 14.925 18.7213 16.325 20.8208 18.425H8.22342Z" fill="#BDBDBD"/>
</g>
<circle cx="18.522" cy="8.75235" r="4" fill="#F53636"/>
<defs>
<clipPath id="clip0">
<rect x="7.52197" y="7.92505" width="14" height="14" fill="white"/>
</clipPath>
</defs>
</svg>
