<svg width="53" height="52" viewBox="0 0 53 52" fill="none" xmlns="http://www.w3.org/2000/svg">
<circle cx="26.8838" cy="26" r="26" fill="#E8F6F3"/>
<g clip-path="url(#clip0)">
<path d="M36.4956 20.5557H34.5269C34.3524 20.5546 34.1848 20.6231 34.0609 20.746L32.9453 21.8682H31.9019V21.2119C31.9019 20.1246 31.0204 19.2432 29.9331 19.2432H18.1206C17.0333 19.2432 16.1519 20.1246 16.1519 21.2119V31.7119C16.1519 32.7992 17.0333 33.6807 18.1206 33.6807H29.9331C31.0204 33.6807 31.9019 32.7992 31.9019 31.7119V31.0557H32.9453L34.0675 32.1779C34.1897 32.2991 34.3547 32.3674 34.5269 32.3682H36.4956C36.8581 32.3682 37.1519 32.0744 37.1519 31.7119V21.2119C37.1519 20.8495 36.8581 20.5557 36.4956 20.5557ZM35.8394 31.0557H34.7959L33.6737 29.9335C33.5515 29.8122 33.3865 29.7439 33.2144 29.7432H31.2456C30.8832 29.7432 30.5894 30.037 30.5894 30.3994V31.7119C30.5894 32.0744 30.2956 32.3682 29.9331 32.3682H18.1206C17.7582 32.3682 17.4644 32.0744 17.4644 31.7119V21.2119C17.4644 20.8495 17.7582 20.5557 18.1206 20.5557H29.9331C30.2956 20.5557 30.5894 20.8495 30.5894 21.2119V27.7744H31.9019V23.1807H33.2144C33.3888 23.1817 33.5565 23.1132 33.6803 22.9904L34.7959 21.8682H35.8394V31.0557Z" fill="#19A589"/>
</g>
<defs>
<clipPath id="clip0">
<rect x="16.1519" y="15.9619" width="21" height="21" fill="white"/>
</clipPath>
</defs>
</svg>
