<svg width="53" height="52" viewBox="0 0 53 52" fill="none" xmlns="http://www.w3.org/2000/svg">
<circle cx="26.8838" cy="26" r="26" fill="#FFF4F0"/>
<g clip-path="url(#clip0)">
<path d="M37.3914 25.4372L36.2259 23.1062V20.9957C36.2259 19.1865 34.754 17.7146 32.9448 17.7146C31.2045 17.7146 29.777 19.0767 29.6707 20.7907H18.3027C17.285 20.7906 16.457 21.6186 16.457 22.6362V31.8645C16.457 32.912 17.3349 33.7101 18.2433 33.7101H31.7144C32.7321 33.7101 33.56 32.8822 33.56 31.8645V28.6826C34.2761 28.4286 34.7904 27.7448 34.7904 26.9427V26.3275H36.8411C37.2976 26.3276 37.5959 25.8461 37.3914 25.4372ZM25.1043 27.8588L18.813 22.021H29.6637V23.1062L29.294 23.8456L25.1043 27.8588ZM31.7144 32.4797H18.3027C17.9635 32.4797 17.6875 32.2038 17.6875 31.8645V22.6552L24.6926 29.1553C24.9306 29.3761 25.3006 29.3747 25.5366 29.1486L28.642 26.1738C28.7529 26.2714 28.8967 26.3275 29.0484 26.3275H31.0991V26.9428C31.0991 27.7448 31.6135 28.4286 32.3295 28.6826V31.8645C32.3296 32.2037 32.0536 32.4797 31.7144 32.4797ZM33.56 26.9428C33.56 27.282 33.2841 27.558 32.9448 27.558C32.6055 27.558 32.3295 27.282 32.3295 26.9428V26.3275H33.56V26.9428H33.56ZM30.0439 25.0971L30.8291 23.5266C30.9427 23.2995 30.873 23.3128 30.8941 20.9957C30.8941 19.8649 31.814 18.945 32.9448 18.945C34.0755 18.945 34.9955 19.8649 34.9955 20.9957C35.0165 23.3127 34.9468 23.2993 35.0604 23.5266L35.8457 25.0971H30.0439Z" fill="#FF8B61"/>
</g>
<defs>
<clipPath id="clip0">
<rect x="16.457" y="15.2124" width="21" height="21" fill="white"/>
</clipPath>
</defs>
</svg>
